<svg width="26" height="26" viewBox="0 0 26 26" fill="none" xmlns="http://www.w3.org/2000/svg">
<path d="M13.4231 6.32898L13.3452 15.0852H12.2904L12.2125 6.32898H13.4231ZM12.8178 18.6932C12.582 18.6932 12.3783 18.6093 12.2065 18.4415C12.0386 18.2697 11.9547 18.0659 11.9547 17.8302C11.9547 17.5904 12.0386 17.3867 12.2065 17.2188C12.3783 17.051 12.582 16.9671 12.8178 16.9671C13.0535 16.9671 13.2553 17.051 13.4231 17.2188C13.5949 17.3867 13.6808 17.5904 13.6808 17.8302C13.6808 17.986 13.6409 18.1298 13.561 18.2617C13.485 18.3935 13.3812 18.4994 13.2493 18.5793C13.1214 18.6552 12.9776 18.6932 12.8178 18.6932Z" fill="#FF9419"/>
<circle cx="12.6579" cy="12.6579" r="11.6579" stroke="#FF941A" stroke-width="2"/>
</svg>
